<svg width="20" height="20" viewBox="0 0 20 20" fill="none" xmlns="http://www.w3.org/2000/svg">
<g id="&#230;&#144;&#156;&#231;&#180;&#162; 1">
<path id="Vector" d="M8.8125 16.3125C6.8125 16.3125 4.9375 15.5625 3.5 14.125C0.5625 11.1875 0.5625 6.4375 3.5 3.5C6.4375 0.5625 11.1875 0.5625 14.125 3.5C15.5625 4.9375 16.3125 6.8125 16.3125 8.8125C16.3125 10.8125 15.5625 12.6875 14.125 14.125C13.875 14.375 13.5 14.375 13.25 14.125C13 13.875 13 13.5 13.25 13.25C14.4375 12.0625 15.0625 10.5 15.0625 8.8125C15.0625 7.125 14.375 5.5625 13.1875 4.375C10.75 1.9375 6.8125 1.9375 4.375 4.375C1.9375 6.8125 1.9375 10.75 4.375 13.1875C5.5625 14.375 7.125 15 8.8125 15C9.3125 15 9.875 14.9375 10.375 14.8125C10.6875 14.75 11.0625 14.9375 11.125 15.25C11.1875 15.5625 11 15.9375 10.6875 16C10.0625 16.1875 9.4375 16.3125 8.8125 16.3125Z" fill="#333333"/>
<path id="Vector_2" d="M18.0625 18.6875C17.875 18.6875 17.75 18.625 17.625 18.5L13.1875 14.0625C12.9375 13.8125 12.9375 13.4375 13.1875 13.1875C13.4375 12.9375 13.8125 12.9375 14.0625 13.1875L18.5 17.625C18.75 17.875 18.75 18.25 18.5 18.5C18.375 18.625 18.25 18.6875 18.0625 18.6875Z" fill="#333333"/>
</g>
</svg>
