<svg width="26" height="26" viewBox="0 0 26 26" fill="none" xmlns="http://www.w3.org/2000/svg">
<g id="&#230;&#144;&#156;&#231;&#180;&#162; 1">
<path id="Vector" d="M11.4563 21.2063C8.85635 21.2063 6.41885 20.2313 4.5501 18.3625C0.731348 14.5438 0.731348 8.36876 4.5501 4.55001C8.36885 0.731256 14.5438 0.731256 18.3626 4.55001C20.2313 6.41876 21.2063 8.85626 21.2063 11.4563C21.2063 14.0563 20.2313 16.4938 18.3626 18.3625C18.0376 18.6875 17.5501 18.6875 17.2251 18.3625C16.9001 18.0375 16.9001 17.55 17.2251 17.225C18.7688 15.6813 19.5813 13.65 19.5813 11.4563C19.5813 9.26251 18.6876 7.23126 17.1438 5.68751C13.9751 2.51876 8.85635 2.51876 5.6876 5.68751C2.51885 8.85626 2.51885 13.975 5.6876 17.1438C7.23135 18.6875 9.2626 19.5 11.4563 19.5C12.1063 19.5 12.8376 19.4188 13.4876 19.2563C13.8938 19.175 14.3813 19.4188 14.4626 19.825C14.5438 20.2313 14.3001 20.7188 13.8938 20.8C13.0813 21.0438 12.2688 21.2063 11.4563 21.2063V21.2063Z" fill="#999999"/>
<path id="Vector_2" d="M23.4812 24.2937C23.2374 24.2937 23.0749 24.2125 22.9124 24.05L17.1437 18.2812C16.8187 17.9562 16.8187 17.4687 17.1437 17.1437C17.4687 16.8187 17.9562 16.8187 18.2812 17.1437L24.0499 22.9125C24.3749 23.2375 24.3749 23.725 24.0499 24.05C23.8874 24.2125 23.7249 24.2937 23.4812 24.2937V24.2937Z" fill="#999999"/>
</g>
</svg>
